<?xml version="1.0" encoding="UTF-8"?>
<svg version="1.1" xmlns="http://www.w3.org/2000/svg" width="533" height="358">
<path d="M0 0 C175.89 0 351.78 0 533 0 C533 118.14 533 236.28 533 358 C357.11 358 181.22 358 0 358 C0 239.86 0 121.72 0 0 Z " fill="#F6F6F6" transform="translate(0,0)"/>
<path d="M0 0 C1.98 0 3.96 0 6 0 C10.69149075 9.86102693 14.87165721 19.87002281 18.9375 30 C19.59413085 31.62855976 20.25112127 33.2569746 20.90844727 34.88525391 C22.26853042 38.25528088 23.62709429 41.6259137 24.984375 44.99707031 C28.1244615 52.79414779 31.28020506 60.58487829 34.4375 68.375 C34.89393387 69.50162048 34.89393387 69.50162048 35.35958862 70.65100098 C41.33457779 85.39644109 47.3632694 100.11971464 53.40989685 114.83590698 C54.02618154 116.33625373 54.64188599 117.83683896 55.25697327 119.337677 C56.82883168 123.16929176 58.4152611 126.99401893 60.0234375 130.81054688 C60.34977173 131.58964417 60.67610596 132.36874146 61.0123291 133.17144775 C61.63481961 134.65648685 62.26147909 136.13978756 62.89294434 137.62103271 C64.12837564 140.57739089 65 142.761636 65 146 C65.64582031 145.9278125 66.29164063 145.855625 66.95703125 145.78125 C81.78249408 144.3210129 96.308942 144.54051047 111 147 C111.23847656 145.74832031 111.47695313 144.49664062 111.72265625 143.20703125 C113.01019936 137.43726382 115.18133036 132.13723129 117.4375 126.6875 C118.35631611 124.42872992 119.27425572 122.16960313 120.19140625 119.91015625 C120.89740967 118.17789795 120.89740967 118.17789795 121.61767578 116.41064453 C123.74390501 111.16454381 125.81138059 105.89597977 127.875 100.625 C128.31013916 99.51560059 128.74527832 98.40620117 129.19360352 97.26318359 C130.19325622 94.71418004 131.19257372 92.1650475 132.19140625 89.61572266 C134.35596902 84.091157 136.52172931 78.56706096 138.6875 73.04296875 C139.31631828 71.43903763 139.31631828 71.43903763 139.95783997 69.80270386 C143.42080433 60.97006822 146.88520328 52.1379957 150.3502655 43.30618286 C152.62656233 37.50372063 154.90062564 31.70039404 157.17163086 25.89585876 C158.39585136 22.76804835 159.62209 19.64103233 160.84893799 16.51425171 C161.40435847 15.09732106 161.95885506 13.68002788 162.51239014 12.26235962 C163.25979089 10.34845624 164.01064126 8.435901 164.76171875 6.5234375 C165.17381592 5.47075684 165.58591309 4.41807617 166.01049805 3.33349609 C167 1 167 1 168 0 C169.99958364 -0.04080783 172.00045254 -0.04254356 174 0 C173.30339386 4.42283702 171.77762935 8.40503034 170.11328125 12.53515625 C169.82012527 13.27287262 169.5269693 14.01058899 169.22492981 14.7706604 C168.5905132 16.36600977 167.95420859 17.96060937 167.31622314 19.55453491 C165.59163331 23.86370236 163.88093822 28.17839084 162.16796875 32.4921875 C161.81653809 33.37603622 161.46510742 34.25988495 161.10302734 35.17051697 C158.01773542 42.93609036 154.98451593 50.72122029 151.9670105 58.51333618 C146.26914686 73.22584749 140.49139357 87.90566767 134.68084717 102.57400513 C128.23648067 118.84461126 121.84874033 135.1369142 115.47875977 151.43676758 C110.39057251 164.45536328 105.28202436 177.46572622 100.14550781 190.46533203 C99.66823242 191.67431152 99.19095703 192.88329102 98.69921875 194.12890625 C98.24724121 195.27117676 97.79526367 196.41344727 97.32958984 197.59033203 C96.41596346 199.93328211 95.52145661 202.28374989 94.64306641 204.64013672 C94.2104248 205.79916504 93.7777832 206.95819336 93.33203125 208.15234375 C92.95409424 209.18222412 92.57615723 210.21210449 92.18676758 211.27319336 C91.05658325 213.86999006 89.79968059 215.82785983 88 218 C73.08188676 182.34804031 73.08188676 182.34804031 69.0625 172.1875 C65.31503519 162.71459623 61.4368815 153.29648928 57.5625 143.875 C51.77091743 129.78752368 46.02114743 115.68378914 40.3125 101.5625 C39.95414063 100.67614868 39.59578125 99.78979736 39.2265625 98.87658691 C37.80754571 95.36666553 36.38868809 91.85667988 34.97009277 88.34658813 C32.09484496 81.23267463 29.21501748 74.12063546 26.32833862 67.01135254 C25.8210544 65.76185056 25.31399174 64.5122586 24.80715942 63.26257324 C21.72006875 55.65153578 18.61183038 48.04949903 15.48228455 40.45581055 C13.81534163 36.41055973 12.15147954 32.36404395 10.48751831 28.31756592 C9.66785066 26.32716683 8.84652205 24.33745087 8.02346802 22.34844971 C6.8710189 19.56335699 5.72406514 16.77605716 4.578125 13.98828125 C4.05722542 12.73581856 4.05722542 12.73581856 3.52580261 11.45805359 C1.96971923 7.65868198 0.58378799 4.09425162 0 0 Z " fill="#1C1C1C" transform="translate(171,20)"/>
<path d="M0 0 C28 0 28 0 36 3 C41.36403844 8.63911734 41.34733235 12.91012552 41.27734375 20.5 C40.89885496 25.27642193 40.0824168 27.34976958 37 31 C32.16129032 34 32.16129032 34 29 34 C30.26832688 36.56376764 31.53956365 39.12602212 32.8125 41.6875 C33.16892578 42.40873047 33.52535156 43.12996094 33.89257812 43.87304688 C35.42119935 46.94431338 36.94777677 49.91604913 38.76171875 52.83203125 C40 55 40 55 40 58 C38.35 58 36.7 58 35 58 C34.73074707 57.3387915 34.46149414 56.67758301 34.18408203 55.99633789 C29.56933627 43.68073049 29.56933627 43.68073049 20.66503906 34.85986328 C15.13006523 33.64190641 10.82555464 34.38213814 5 35 C5 42.59 5 50.18 5 58 C3.35 58 1.7 58 0 58 C0 38.86 0 19.72 0 0 Z " fill="#151515" transform="translate(370,265)"/>
<path d="M0 0 C2.625 -0.1875 2.625 -0.1875 5 0 C7.93666438 5.65103145 10.37261356 11.3106468 12.56640625 17.28515625 C12.88657211 18.14507675 13.20673798 19.00499725 13.53660583 19.89097595 C14.54945936 22.61327179 15.55632334 25.33773011 16.5625 28.0625 C17.57320804 30.79047028 18.58522123 33.51794443 19.59910583 36.24473572 C20.22670728 37.93355612 20.85236411 39.62310095 21.47572327 41.31349182 C22.79992007 44.88472041 24.15961002 48.40691244 25.71459961 51.88452148 C27 55 27 55 27 58 C25.35 58 23.7 58 22 58 C20.35 53.71 18.7 49.42 17 45 C7.43 45 -2.14 45 -12 45 C-13.65 49.29 -15.3 53.58 -17 58 C-18.65 58 -20.3 58 -22 58 C-21.36616383 51.88805475 -19.03920048 46.47337206 -16.81640625 40.80078125 C-16.19305641 39.19277901 -16.19305641 39.19277901 -15.55711365 37.55229187 C-14.67975139 35.29282094 -13.79956692 33.03444412 -12.91674805 30.77709961 C-11.56427323 27.31703648 -10.22190347 23.85317908 -8.88085938 20.38867188 C-8.02663719 18.19247661 -7.1718392 15.9965052 -6.31640625 13.80078125 C-5.91426407 12.76327225 -5.51212189 11.72576324 -5.09779358 10.65681458 C-4.72077805 9.69539047 -4.34376251 8.73396637 -3.95532227 7.7434082 C-3.62524673 6.89768753 -3.2951712 6.05196686 -2.95509338 5.18061829 C-2 3 -2 3 0 0 Z " fill="#1E1E1E" transform="translate(450,265)"/>
<path d="M0 0 C1.3293457 -0.01836914 1.3293457 -0.01836914 2.68554688 -0.03710938 C8.90559603 -0.05071999 14.63955311 0.74906498 20.6875 2.1875 C20.09333504 6.54104953 19.02128335 10.29400901 17.39453125 14.37109375 C16.93151611 15.53995117 16.46850098 16.70880859 15.99145508 17.91308594 C15.49444644 19.1504481 14.9972924 20.38775186 14.5 21.625 C13.99777081 22.88683735 13.49606311 24.14888238 12.99487305 25.41113281 C11.56576128 29.00593817 10.12690741 32.59680435 8.6875 36.1875 C7.99953612 37.91257549 7.31196489 39.63780769 6.625 41.36328125 C5.31891579 44.64061624 4.00639857 47.91529595 2.6875 51.1875 C-0.04090415 47.91862917 -1.50321205 44.60825614 -3.0546875 40.65625 C-3.30493683 40.02448853 -3.55518616 39.39272705 -3.8130188 38.74182129 C-4.61026629 36.72592717 -5.39917167 34.70689655 -6.1875 32.6875 C-6.96769628 30.70427888 -7.74963519 28.72175497 -8.5322876 26.73950195 C-9.04569379 25.43787221 -9.5575447 24.13562789 -10.06781006 22.83276367 C-12.07517742 17.72392698 -14.22011114 12.68130777 -16.43408203 7.65820312 C-17.3125 5.1875 -17.3125 5.1875 -17.3125 1.1875 C-11.51548423 0.19621823 -5.8752746 0.00421771 0 0 Z " fill="#F3F3F3" transform="translate(257.3125,170.8125)"/>
<path d="M0 0 C7.61165365 4.20096731 12.41280257 10.9884077 15.14453125 19.18359375 C15.88667323 29.22075992 15.77267195 38.17641338 9.4140625 46.4296875 C4.93827404 51.29855918 0.29887473 53.92359625 -5.85546875 56.18359375 C-6.84546875 56.67859375 -6.84546875 56.67859375 -7.85546875 57.18359375 C-18.07549376 58.17002021 -26.18448869 56.42085074 -34.23046875 49.93359375 C-37.91244392 46.47431869 -40.00965055 42.84382782 -41.85546875 38.18359375 C-42.21125 37.39597656 -42.56703125 36.60835938 -42.93359375 35.796875 C-45.51567944 28.47731853 -44.37143027 20.42134458 -41.1640625 13.49609375 C-32.62911189 -1.58656523 -15.89111264 -7.41927553 0 0 Z M-34.37890625 12.12109375 C-38.93706868 18.48805079 -39.82198875 24.54808576 -38.85546875 32.18359375 C-36.74895068 39.4205026 -32.83833306 45.58006382 -26.29296875 49.49609375 C-19.45162483 52.85457167 -11.90112223 53.47942195 -4.60546875 50.99609375 C1.80444408 48.19739942 6.03076086 44.08249599 9.23046875 37.91015625 C11.46907117 31.23261569 11.17319071 23.35769247 8.95703125 16.68359375 C5.27931646 9.58179967 0.84405003 4.77583861 -6.85546875 2.18359375 C-18.85149501 0.60516924 -26.79539642 2.70230529 -34.37890625 12.12109375 Z " fill="#1D1D1D" transform="translate(332.85546875,266.81640625)"/>
<path d="M0 0 C3.320625 -0.061875 6.64125 -0.12375 10.0625 -0.1875 C11.09511963 -0.21481201 12.12773926 -0.24212402 13.19165039 -0.27026367 C19.76356487 -0.32921882 24.9666863 0.07192372 29.9140625 4.84765625 C32.01039488 9.00261718 31.49087247 13.47455932 31 18 C29.28756143 22.32616059 27.08380527 23.91703667 23 26 C20.32104492 26.34057617 20.32104492 26.34057617 17.48046875 26.29296875 C16.55903076 26.28547607 15.63759277 26.2779834 14.68823242 26.27026367 C13.53299072 26.24295166 12.37774902 26.21563965 11.1875 26.1875 C7.495625 26.125625 3.80375 26.06375 0 26 C0 17.42 0 8.84 0 0 Z " fill="#F1F1F1" transform="translate(375,269)"/>
<path d="M0 0 C3.44821747 1.94514832 6.07682595 4.64583886 7.98046875 8.1171875 C7.98046875 9.4371875 7.98046875 10.7571875 7.98046875 12.1171875 C5.66796875 12.4296875 5.66796875 12.4296875 2.98046875 12.1171875 C1.95434926 10.46647354 0.95738732 8.79748744 -0.01953125 7.1171875 C-5.27209181 3.21143734 -11.72606994 3.253213 -18.01953125 4.1171875 C-21.49789416 5.80936405 -22.8467052 6.85794843 -25.01953125 10.1171875 C-25.49866015 13.79050909 -25.39110995 15.53731291 -23.375 18.68359375 C-20.61349574 21.53669019 -18.76916884 22.18380708 -14.95703125 23.1796875 C-13.80976563 23.50453125 -12.6625 23.829375 -11.48046875 24.1640625 C-10.33835938 24.47859375 -9.19625 24.793125 -8.01953125 25.1171875 C-0.46699526 27.29690675 4.61337517 29.34985929 8.98046875 36.1171875 C10.60932804 39.37490609 10.52291834 42.59742938 9.98046875 46.1171875 C8.14225607 50.57802259 6.0054054 53.46875819 1.91796875 56.0546875 C-5.80432699 58.8478583 -14.99131004 59.76142266 -22.8984375 57.17578125 C-27.11697932 54.9587881 -30.29318636 52.72077386 -32.01953125 48.1171875 C-32.20703125 45.3046875 -32.20703125 45.3046875 -32.01953125 43.1171875 C-30.36953125 43.1171875 -28.71953125 43.1171875 -27.01953125 43.1171875 C-26.46265625 44.509375 -26.46265625 44.509375 -25.89453125 45.9296875 C-23.62601312 49.78616833 -22.12912852 50.47818341 -18.01953125 52.1171875 C-14.56895712 52.58778415 -14.56895712 52.58778415 -11.01953125 52.4921875 C-9.84390625 52.49992187 -8.66828125 52.50765625 -7.45703125 52.515625 C-3.68694003 52.07863715 -1.24627044 51.08588254 1.98046875 49.1171875 C3.20737942 46.66336616 3.18222806 44.91734647 3.23046875 42.1796875 C3.26914063 40.86677734 3.26914063 40.86677734 3.30859375 39.52734375 C2.90745441 36.5808798 2.23591307 35.98211431 -0.01953125 34.1171875 C-1.99038207 33.25371726 -1.99038207 33.25371726 -4.1875 32.6875 C-4.99896484 32.44902344 -5.81042969 32.21054687 -6.64648438 31.96484375 C-8.33338442 31.48875449 -10.02087272 31.0147439 -11.70898438 30.54296875 C-18.28557539 28.60471419 -24.24984706 26.05997695 -29.01953125 20.9921875 C-30.63845591 16.3377791 -30.88057796 11.97099113 -30.01953125 7.1171875 C-24.14153703 -3.91384832 -10.60572321 -4.05683402 0 0 Z " fill="#1D1D1D" transform="translate(199.01953125,265.8828125)"/>
<path d="M0 0 C13.53 0 27.06 0 41 0 C41 1.32 41 2.64 41 4 C35.06 4 29.12 4 23 4 C23 20.17 23 36.34 23 53 C28.94 53 34.88 53 41 53 C41 54.65 41 56.3 41 58 C27.47 58 13.94 58 0 58 C0 56.35 0 54.7 0 53 C5.94 53 11.88 53 18 53 C18 37.16 18 21.32 18 5 C12.39 5 6.78 5 1 5 C0.67 3.35 0.34 1.7 0 0 Z " fill="#181818" transform="translate(106,265)"/>
<path d="M0 0 C1.65 0 3.3 0 5 0 C9.42238073 10.29781098 13.36874026 20.76224374 17.3125 31.25 C17.96400353 32.97793592 18.6156949 34.70580103 19.26757812 36.43359375 C20.84721583 40.62158375 22.42431902 44.81051982 24 49 C25.59641886 46.60537171 26.55683357 44.81812962 27.55639648 42.19042969 C27.84687363 41.4324408 28.13735077 40.6744519 28.43663025 39.89349365 C28.89918968 38.67004242 28.89918968 38.67004242 29.37109375 37.421875 C29.69408951 36.57707581 30.01708527 35.73227661 30.34986877 34.86187744 C31.38257596 32.15923723 32.41029665 29.45473633 33.4375 26.75 C34.46191584 24.05985362 35.48740492 21.37012456 36.51441956 18.68096924 C37.15277925 17.00872183 37.78953533 15.33586108 38.42442322 13.66229248 C40.17887402 9.05793096 42.02648441 4.51497639 44 0 C45.65 0 47.3 0 49 0 C46.95070494 7.22207177 44.50353854 14.21975116 41.8046875 21.22265625 C41.41177521 22.24934921 41.01886292 23.27604218 40.61404419 24.33384705 C39.79050538 26.48324504 38.96519553 28.63196524 38.13818359 30.7800293 C36.8672479 34.08264437 35.60316994 37.38782703 34.33984375 40.69335938 C33.53686081 42.78661277 32.73348953 44.87971725 31.9296875 46.97265625 C31.55053192 47.96419205 31.17137634 48.95572784 30.7807312 49.97731018 C30.43011627 50.88593307 30.07950134 51.79455597 29.71826172 52.73071289 C29.40976288 53.53328018 29.10126404 54.33584747 28.78341675 55.16273499 C28 57 28 57 27 58 C25.33382885 58.04063832 23.66611905 58.042721 22 58 C17.53078073 47.56950197 13.44935058 36.98922444 9.35961914 26.40576172 C8.17625907 23.3459342 6.9876169 20.28819058 5.79882812 17.23046875 C5.04655318 15.28658285 4.29458845 13.34257686 3.54296875 11.3984375 C3.18679977 10.48395844 2.8306308 9.56947937 2.46366882 8.62728882 C2.1394545 7.78525909 1.81524017 6.94322937 1.48120117 6.07568359 C1.19427902 5.334664 0.90735687 4.59364441 0.61174011 3.83016968 C0 2 0 2 0 0 Z " fill="#1C1C1C" transform="translate(39,265)"/>
<path d="M0 0 C14.85 0 29.7 0 45 0 C45 1.32 45 2.64 45 4 C38.4 4 31.8 4 25 4 C25 21.82 25 39.64 25 58 C23.35 58 21.7 58 20 58 C20 40.18 20 22.36 20 4 C13.4 4 6.8 4 0 4 C0 2.68 0 1.36 0 0 Z " fill="#121212" transform="translate(226,265)"/>
<path d="M0 0 C3.58150728 3.58150728 4.70116645 8.77238766 6.42333984 13.46679688 C7.12099628 15.36411167 7.83133462 17.25632794 8.54296875 19.1484375 C8.98511719 20.3446875 9.42726563 21.5409375 9.8828125 22.7734375 C10.28902832 23.87091309 10.69524414 24.96838867 11.11376953 26.09912109 C12 29 12 29 12 33 C4.08 33 -3.84 33 -12 33 C-8.62341624 21.74472079 -8.62341624 21.74472079 -6.9921875 17.5 C-6.47205078 16.14068359 -6.47205078 16.14068359 -5.94140625 14.75390625 C-5.58949219 13.84511719 -5.23757813 12.93632812 -4.875 12 C-4.51535156 11.06027344 -4.15570313 10.12054688 -3.78515625 9.15234375 C-1.16153921 2.32307842 -1.16153921 2.32307842 0 0 Z " fill="#F0F0F0" transform="translate(452,271)"/>
</svg>
